<?xml version="1.0" encoding="UTF-8" standalone="no"?>
<!DOCTYPE svg PUBLIC "-//W3C//DTD SVG 1.1//EN"
 "http://www.w3.org/Graphics/SVG/1.1/DTD/svg11.dtd">
<!-- Generated by graphviz version 2.38.0 (20140413.2041)
 -->
<!-- Title: G Pages: 1 -->
<svg width="533pt" height="402pt"
 viewBox="0.00 0.00 533.38 402.00" xmlns="http://www.w3.org/2000/svg" xmlns:xlink="http://www.w3.org/1999/xlink">
<g id="graph0" class="graph" transform="scale(1 1) rotate(0) translate(4 398)">
<title>G</title>
<polygon fill="white" stroke="none" points="-4,4 -4,-398 529.377,-398 529.377,4 -4,4"/>
<g id="clust1" class="cluster"><title>cluster_Global</title>
<path fill="none" stroke="gray" d="M325.377,-8C325.377,-8 505.377,-8 505.377,-8 511.377,-8 517.377,-14 517.377,-20 517.377,-20 517.377,-374 517.377,-374 517.377,-380 511.377,-386 505.377,-386 505.377,-386 325.377,-386 325.377,-386 319.377,-386 313.377,-380 313.377,-374 313.377,-374 313.377,-20 313.377,-20 313.377,-14 319.377,-8 325.377,-8"/>
<text text-anchor="middle" x="415.377" y="-373.2" font-family="Times New Roman,serif" font-size="11.00" fill="gray">Global</text>
</g>
<g id="clust2" class="cluster"><title>cluster_\PHPSandbox</title>
<path fill="none" stroke="gray" d="M333.377,-16C333.377,-16 497.377,-16 497.377,-16 503.377,-16 509.377,-22 509.377,-28 509.377,-28 509.377,-346 509.377,-346 509.377,-352 503.377,-358 497.377,-358 497.377,-358 333.377,-358 333.377,-358 327.377,-358 321.377,-352 321.377,-346 321.377,-346 321.377,-28 321.377,-28 321.377,-22 327.377,-16 333.377,-16"/>
<text text-anchor="middle" x="415.377" y="-345.2" font-family="Times New Roman,serif" font-size="11.00" fill="gray">PHPSandbox</text>
</g>
<!-- \\PHPSandbox\\ValidatorVisitor -->
<g id="node1" class="node"><title>\\PHPSandbox\\ValidatorVisitor</title>
<polygon fill="none" stroke="black" points="477.877,-330 352.877,-330 352.877,-294 477.877,-294 477.877,-330"/>
<text text-anchor="middle" x="415.377" y="-309.2" font-family="Courier,monospace" font-size="11.00">ValidatorVisitor</text>
</g>
<!-- \\PhpParser\\NodeVisitorAbstract -->
<g id="node7" class="node"><title>\\PhpParser\\NodeVisitorAbstract</title>
<ellipse fill="none" stroke="black" cx="128.689" cy="-258" rx="128.877" ry="18"/>
<text text-anchor="middle" x="128.689" y="-254.3" font-family="Times New Roman,serif" font-size="14.00" fill="gray">\PhpParser\NodeVisitorAbstract</text>
</g>
<!-- \\PHPSandbox\\ValidatorVisitor&#45;&gt;\\PhpParser\\NodeVisitorAbstract -->
<g id="edge1" class="edge"><title>\\PHPSandbox\\ValidatorVisitor&#45;&gt;\\PhpParser\\NodeVisitorAbstract</title>
<path fill="none" stroke="black" d="M352.604,-300.283C312.543,-292.684 259.786,-282.677 215.653,-274.306"/>
<polygon fill="none" stroke="black" points="216.274,-270.861 205.797,-272.436 214.97,-277.739 216.274,-270.861"/>
</g>
<!-- \\PHPSandbox\\Error -->
<g id="node2" class="node"><title>\\PHPSandbox\\Error</title>
<polygon fill="none" stroke="black" points="442.377,-168 388.377,-168 388.377,-132 442.377,-132 442.377,-168"/>
<text text-anchor="middle" x="415.377" y="-147.2" font-family="Courier,monospace" font-size="11.00">Error</text>
</g>
<!-- \\Exception -->
<g id="node8" class="node"><title>\\Exception</title>
<ellipse fill="none" stroke="black" cx="128.689" cy="-150" rx="50.0912" ry="18"/>
<text text-anchor="middle" x="128.689" y="-146.3" font-family="Times New Roman,serif" font-size="14.00" fill="gray">\Exception</text>
</g>
<!-- \\PHPSandbox\\Error&#45;&gt;\\Exception -->
<g id="edge2" class="edge"><title>\\PHPSandbox\\Error&#45;&gt;\\Exception</title>
<path fill="none" stroke="black" d="M388.358,-150C343.527,-150 250.634,-150 189.24,-150"/>
<polygon fill="none" stroke="black" points="188.916,-146.5 178.916,-150 188.916,-153.5 188.916,-146.5"/>
</g>
<!-- \\PHPSandbox\\SandboxWhitelistVisitor -->
<g id="node3" class="node"><title>\\PHPSandbox\\SandboxWhitelistVisitor</title>
<polygon fill="none" stroke="black" points="501.377,-276 329.377,-276 329.377,-240 501.377,-240 501.377,-276"/>
<text text-anchor="middle" x="415.377" y="-255.2" font-family="Courier,monospace" font-size="11.00">SandboxWhitelistVisitor</text>
</g>
<!-- \\PHPSandbox\\SandboxWhitelistVisitor&#45;&gt;\\PhpParser\\NodeVisitorAbstract -->
<g id="edge3" class="edge"><title>\\PHPSandbox\\SandboxWhitelistVisitor&#45;&gt;\\PhpParser\\NodeVisitorAbstract</title>
<path fill="none" stroke="black" d="M329.347,-258C309.828,-258 288.582,-258 267.471,-258"/>
<polygon fill="none" stroke="black" points="267.458,-254.5 257.458,-258 267.458,-261.5 267.458,-254.5"/>
</g>
<!-- \\PHPSandbox\\WhitelistVisitor -->
<g id="node4" class="node"><title>\\PHPSandbox\\WhitelistVisitor</title>
<polygon fill="none" stroke="black" points="477.877,-222 352.877,-222 352.877,-186 477.877,-186 477.877,-222"/>
<text text-anchor="middle" x="415.377" y="-201.2" font-family="Courier,monospace" font-size="11.00">WhitelistVisitor</text>
</g>
<!-- \\PHPSandbox\\WhitelistVisitor&#45;&gt;\\PhpParser\\NodeVisitorAbstract -->
<g id="edge4" class="edge"><title>\\PHPSandbox\\WhitelistVisitor&#45;&gt;\\PhpParser\\NodeVisitorAbstract</title>
<path fill="none" stroke="black" d="M352.604,-215.717C312.543,-223.316 259.786,-233.323 215.653,-241.694"/>
<polygon fill="none" stroke="black" points="214.97,-238.261 205.797,-243.564 216.274,-245.139 214.97,-238.261"/>
</g>
<!-- \\PHPSandbox\\SandboxedString -->
<g id="node5" class="node"><title>\\PHPSandbox\\SandboxedString</title>
<polygon fill="none" stroke="black" points="474.377,-114 356.377,-114 356.377,-78 474.377,-78 474.377,-114"/>
<text text-anchor="middle" x="415.377" y="-93.2" font-family="Courier,monospace" font-size="11.00">SandboxedString</text>
</g>
<!-- \\ArrayAccess -->
<g id="node9" class="node"><title>\\ArrayAccess</title>
<ellipse fill="none" stroke="black" cx="128.689" cy="-96" rx="60.3893" ry="18"/>
<text text-anchor="middle" x="128.689" y="-92.3" font-family="Times New Roman,serif" font-size="14.00" fill="gray">\ArrayAccess</text>
</g>
<!-- \\PHPSandbox\\SandboxedString&#45;&gt;\\ArrayAccess -->
<g id="edge5" class="edge"><title>\\PHPSandbox\\SandboxedString&#45;&gt;\\ArrayAccess</title>
<path fill="none" stroke="black" stroke-dasharray="1,5" d="M356.079,-96C310.669,-96 247.481,-96 199.397,-96"/>
<polygon fill="none" stroke="black" points="199.378,-92.5001 189.378,-96 199.378,-99.5001 199.378,-92.5001"/>
</g>
<!-- \\IteratorAggregate -->
<g id="node10" class="node"><title>\\IteratorAggregate</title>
<ellipse fill="none" stroke="black" cx="128.689" cy="-42" rx="76.0865" ry="18"/>
<text text-anchor="middle" x="128.689" y="-38.3" font-family="Times New Roman,serif" font-size="14.00" fill="gray">\IteratorAggregate</text>
</g>
<!-- \\PHPSandbox\\SandboxedString&#45;&gt;\\IteratorAggregate -->
<g id="edge6" class="edge"><title>\\PHPSandbox\\SandboxedString&#45;&gt;\\IteratorAggregate</title>
<path fill="none" stroke="black" stroke-dasharray="1,5" d="M356.079,-84.942C310.518,-76.2998 247.058,-64.2627 198.916,-55.131"/>
<polygon fill="none" stroke="black" points="199.364,-51.6538 188.887,-53.2288 198.059,-58.5311 199.364,-51.6538"/>
</g>
<!-- \\PHPSandbox\\PHPSandbox -->
<g id="node6" class="node"><title>\\PHPSandbox\\PHPSandbox</title>
<polygon fill="none" stroke="black" points="457.377,-60 373.377,-60 373.377,-24 457.377,-24 457.377,-60"/>
<text text-anchor="middle" x="415.377" y="-39.2" font-family="Courier,monospace" font-size="11.00">PHPSandbox</text>
</g>
<!-- \\PHPSandbox\\PHPSandbox&#45;&gt;\\IteratorAggregate -->
<g id="edge7" class="edge"><title>\\PHPSandbox\\PHPSandbox&#45;&gt;\\IteratorAggregate</title>
<path fill="none" stroke="black" stroke-dasharray="1,5" d="M373.285,-42C332.143,-42 267.603,-42 215.289,-42"/>
<polygon fill="none" stroke="black" points="215,-38.5001 205,-42 215,-45.5001 215,-38.5001"/>
</g>
</g>
</svg>
