<?xml version="1.0" encoding="UTF-8" standalone="no"?>
<!DOCTYPE svg PUBLIC "-//W3C//DTD SVG 1.1//EN"
 "http://www.w3.org/Graphics/SVG/1.1/DTD/svg11.dtd">
<!-- Generated by graphviz version 2.30.1 (20130214.1330)
 -->
<!-- Title: G Pages: 1 -->
<svg width="536pt" height="312pt"
 viewBox="0.00 0.00 536.00 312.00" xmlns="http://www.w3.org/2000/svg" xmlns:xlink="http://www.w3.org/1999/xlink">
<g id="graph0" class="graph" transform="scale(1 1) rotate(0) translate(4 308)">
<title>G</title>
<polygon fill="white" stroke="white" points="-4,5 -4,-308 533,-308 533,5 -4,5"/>
<g id="clust1" class="cluster"><title>cluster_PHPSandbox</title>
<path fill="none" stroke="gray" d="M344,-8C344,-8 508,-8 508,-8 514,-8 520,-14 520,-20 520,-20 520,-284 520,-284 520,-290 514,-296 508,-296 508,-296 344,-296 344,-296 338,-296 332,-290 332,-284 332,-284 332,-20 332,-20 332,-14 338,-8 344,-8"/>
<text text-anchor="middle" x="426" y="-283.2" font-family="Times New Roman,serif" font-size="11.00" fill="gray">PHPSandbox</text>
</g>
<!-- \\PHPSandbox\\Error -->
<g id="node1" class="node"><title>\\PHPSandbox\\Error</title>
<g id="a_node1"><a xlink:href="Error.html" xlink:title="Error" target="_parent">
<polygon fill="none" stroke="black" points="453,-268 399,-268 399,-232 453,-232 453,-268"/>
<text text-anchor="middle" x="426" y="-247.2" font-family="Courier,monospace" font-size="11.00">Error</text>
</a>
</g>
</g>
<!-- \\Exception -->
<g id="node6" class="node"><title>\\Exception</title>
<ellipse fill="none" stroke="black" cx="134" cy="-250" rx="50.0912" ry="18"/>
<text text-anchor="middle" x="134" y="-246.3" font-family="Times New Roman,serif" font-size="14.00" fill="gray">\Exception</text>
</g>
<!-- \\PHPSandbox\\Error&#45;&gt;\\Exception -->
<g id="edge1" class="edge"><title>\\PHPSandbox\\Error&#45;&gt;\\Exception</title>
<path fill="none" stroke="black" d="M398.753,-250C352.857,-250 256.955,-250 194.317,-250"/>
<polygon fill="none" stroke="black" points="194.18,-246.5 184.18,-250 194.18,-253.5 194.18,-246.5"/>
</g>
<!-- \\PHPSandbox\\PHPSandbox -->
<g id="node2" class="node"><title>\\PHPSandbox\\PHPSandbox</title>
<g id="a_node2"><a xlink:href="PHPSandbox.html" xlink:title="PHPSandbox" target="_parent">
<polygon fill="none" stroke="black" points="468,-214 384,-214 384,-178 468,-178 468,-214"/>
<text text-anchor="middle" x="426" y="-193.2" font-family="Courier,monospace" font-size="11.00">PHPSandbox</text>
</a>
</g>
</g>
<!-- \\PHPSandbox\\SandboxWhitelistVisitor -->
<g id="node3" class="node"><title>\\PHPSandbox\\SandboxWhitelistVisitor</title>
<g id="a_node3"><a xlink:href="SandboxWhitelistVisitor.html" xlink:title="SandboxWhitelistVisitor" target="_parent">
<polygon fill="none" stroke="black" points="512,-160 340,-160 340,-124 512,-124 512,-160"/>
<text text-anchor="middle" x="426" y="-139.2" font-family="Courier,monospace" font-size="11.00">SandboxWhitelistVisitor</text>
</a>
</g>
</g>
<!-- \\PHPParser_NodeVisitorAbstract -->
<g id="node7" class="node"><title>\\PHPParser_NodeVisitorAbstract</title>
<ellipse fill="none" stroke="black" cx="134" cy="-88" rx="133.776" ry="18"/>
<text text-anchor="middle" x="134" y="-84.3" font-family="Times New Roman,serif" font-size="14.00" fill="gray">\PHPParser_NodeVisitorAbstract</text>
</g>
<!-- \\PHPSandbox\\SandboxWhitelistVisitor&#45;&gt;\\PHPParser_NodeVisitorAbstract -->
<g id="edge2" class="edge"><title>\\PHPSandbox\\SandboxWhitelistVisitor&#45;&gt;\\PHPParser_NodeVisitorAbstract</title>
<path fill="none" stroke="black" d="M339.95,-126.163C303.286,-119.336 260.415,-111.353 223.387,-104.458"/>
<polygon fill="none" stroke="black" points="223.58,-100.934 213.108,-102.544 222.298,-107.816 223.58,-100.934"/>
</g>
<!-- \\PHPSandbox\\ValidatorVisitor -->
<g id="node4" class="node"><title>\\PHPSandbox\\ValidatorVisitor</title>
<g id="a_node4"><a xlink:href="ValidatorVisitor.html" xlink:title="ValidatorVisitor" target="_parent">
<polygon fill="none" stroke="black" points="488.5,-106 363.5,-106 363.5,-70 488.5,-70 488.5,-106"/>
<text text-anchor="middle" x="426" y="-85.2" font-family="Courier,monospace" font-size="11.00">ValidatorVisitor</text>
</a>
</g>
</g>
<!-- \\PHPSandbox\\ValidatorVisitor&#45;&gt;\\PHPParser_NodeVisitorAbstract -->
<g id="edge3" class="edge"><title>\\PHPSandbox\\ValidatorVisitor&#45;&gt;\\PHPParser_NodeVisitorAbstract</title>
<path fill="none" stroke="black" d="M363.498,-88C338.403,-88 308.246,-88 278.192,-88"/>
<polygon fill="none" stroke="black" points="278.011,-84.5001 268.011,-88 278.011,-91.5001 278.011,-84.5001"/>
</g>
<!-- \\PHPSandbox\\WhitelistVisitor -->
<g id="node5" class="node"><title>\\PHPSandbox\\WhitelistVisitor</title>
<g id="a_node5"><a xlink:href="WhitelistVisitor.html" xlink:title="WhitelistVisitor" target="_parent">
<polygon fill="none" stroke="black" points="488.5,-52 363.5,-52 363.5,-16 488.5,-16 488.5,-52"/>
<text text-anchor="middle" x="426" y="-31.2" font-family="Courier,monospace" font-size="11.00">WhitelistVisitor</text>
</a>
</g>
</g>
<!-- \\PHPSandbox\\WhitelistVisitor&#45;&gt;\\PHPParser_NodeVisitorAbstract -->
<g id="edge4" class="edge"><title>\\PHPSandbox\\WhitelistVisitor&#45;&gt;\\PHPParser_NodeVisitorAbstract</title>
<path fill="none" stroke="black" d="M363.498,-45.452C322.683,-53.0522 268.478,-63.1456 223.105,-71.5942"/>
<polygon fill="none" stroke="black" points="222.459,-68.1542 213.269,-73.4257 223.741,-75.0359 222.459,-68.1542"/>
</g>
</g>
</svg>
